<svg width="100" height="84" viewBox="0 0 100 84" fill="none" xmlns="http://www.w3.org/2000/svg">
<path d="M49.0319 75.3965C69.7306 75.3965 86.5223 58.5216 86.5223 37.6567C86.5223 16.7917 69.7306 0 49.0319 0C28.3332 0 11.5415 16.8748 11.5415 37.7398C11.5415 58.6048 28.3332 75.3965 49.0319 75.3965Z" fill="#E6E6E6"/>
<path d="M67.4862 74.8977C61.7504 75.0639 54.934 74.8977 50.0295 74.8145C45.2081 74.9808 38.3085 75.0639 32.5728 74.8977C38.2254 71.6557 40.2205 65.6705 40.4698 61.6804H59.4229C59.9216 65.5874 61.9167 71.6557 67.4862 74.8977Z" fill="url(#paint0_linear_132_3053)"/>
<g filter="url(#filter0_d_132_3053)">
<path d="M85.8573 11.3884V61.0154C85.8573 62.2623 84.8598 63.1767 83.7791 63.1767H16.6954C15.5316 63.1767 14.6172 62.1792 14.6172 61.0154V11.3884C14.6172 10.2246 15.6147 9.22711 16.6954 9.22711H83.696C84.9429 9.22711 85.8573 10.2246 85.8573 11.3884Z" fill="white"/>
</g>
<path d="M85.8573 11.3884V54.1159H14.6172V11.3884C14.6172 10.2246 15.6147 9.22711 16.6954 9.22711H83.696C84.9429 9.22711 85.8573 10.2246 85.8573 11.3884Z" fill="#989FB0"/>
<path d="M83.1145 11.9703H17.0283V51.7052H83.1977V11.9703H83.1145Z" fill="white"/>
<path d="M50.1129 60.2161C51.1104 60.2161 51.8585 59.468 51.8585 58.4705C51.8585 57.4729 51.1104 56.7248 50.1129 56.7248C49.1153 56.7248 48.3672 57.4729 48.3672 58.4705C48.3672 59.468 49.1153 60.2161 50.1129 60.2161Z" fill="#D0D8E6"/>
<path d="M79.2902 19.2855V24.3563C79.2902 25.1044 78.7083 25.6863 77.9601 25.6863H22.0986C21.3504 25.6863 20.7686 25.1044 20.7686 24.3563V19.2855C20.7686 18.5374 21.3504 17.9555 22.0986 17.9555H77.877C78.7083 17.8724 79.2902 18.5374 79.2902 19.2855Z" fill="#E5E9F1"/>
<path d="M28.5826 17.8724V25.7695H22.0156C21.2674 25.7695 20.6855 25.1876 20.6855 24.4394V19.3687C20.6855 18.6205 21.2674 18.0386 22.0156 18.0386L28.5826 17.8724Z" fill="#E3EAF2"/>
<path opacity="0.8" d="M79.2902 29.9258V34.9966C79.2902 35.7447 78.7083 36.3266 77.9601 36.3266H22.0986C21.3504 36.3266 20.7686 35.7447 20.7686 34.9966V29.9258C20.7686 29.1777 21.3504 28.5958 22.0986 28.5958H77.877C78.7083 28.5126 79.2902 29.1777 79.2902 29.9258Z" fill="#E5E9F1"/>
<path d="M28.5826 17.8724V25.7695H22.0156C21.2674 25.7695 20.6855 25.1876 20.6855 24.4394V19.3687C20.6855 18.6205 21.2674 18.0386 22.0156 18.0386L28.5826 17.8724Z" fill="#989FB0"/>
<path d="M24.4262 23.525C24.26 23.525 24.0937 23.4419 24.0106 23.3588L22.7637 22.1118C22.5143 21.8625 22.5143 21.53 22.7637 21.2806C23.0131 21.0312 23.3456 21.0312 23.595 21.2806L24.3431 22.0287L26.1719 20.1999C26.4213 19.9505 26.7538 19.9505 27.0032 20.1999C27.2526 20.4493 27.2526 20.7818 27.0032 21.0312L24.7588 23.2756C24.6756 23.4419 24.5094 23.525 24.4262 23.525Z" fill="white"/>
<path opacity="0.5" d="M79.2902 40.5662V45.6369C79.2902 46.3851 78.7083 46.967 77.9601 46.967H22.0986C21.3504 46.967 20.7686 46.3851 20.7686 45.6369V40.5662C20.7686 39.818 21.3504 39.2361 22.0986 39.2361H77.877C78.7083 39.153 79.2902 39.7349 79.2902 40.5662Z" fill="#E5E9F1"/>
<path opacity="0.3" d="M79.2903 51.1233V51.7052H20.6855V51.1233C20.6855 50.3752 21.2674 49.7933 22.0156 49.7933H77.8771C78.7084 49.7933 79.2903 50.3752 79.2903 51.1233Z" fill="#E5E9F1"/>
<path d="M20.0206 72.1545C20.0206 73.5677 18.8569 74.7315 17.4437 74.7315H3.14579C1.73263 74.7315 0.568848 73.5677 0.568848 72.1545V38.5711C0.568848 37.1579 1.73263 35.9941 3.14579 35.9941H17.3606C18.7737 35.9941 19.9375 37.1579 19.9375 38.5711L20.0206 72.1545Z" fill="white"/>
<path d="M17.4437 35.9109C18.8569 35.9109 20.0206 37.0747 20.0206 38.4879V72.0713C20.0206 73.4845 18.8569 74.6483 17.4437 74.6483H3.14579C1.73263 74.6483 0.568848 73.4845 0.568848 72.0713V38.571C0.568848 37.1579 1.73263 35.9941 3.14579 35.9941L17.4437 35.9109Z" fill="#989FB0"/>
<path d="M18.7739 38.571V72.1545C18.7739 72.8195 18.2751 73.4845 17.527 73.4845H17.4439H3.14595H3.06283C2.39781 73.4845 1.81592 72.9026 1.81592 72.1545V38.571C1.81592 37.8229 2.39781 37.241 3.06283 37.241H5.14101C5.47352 37.241 5.63977 37.4904 5.63977 37.7398C5.63977 38.2385 6.05541 38.7373 6.6373 38.7373H13.8694C14.3681 38.7373 14.8669 38.3217 14.8669 37.7398C14.8669 37.4073 15.1163 37.241 15.2825 37.241H17.2776C18.1089 37.1579 18.7739 37.8229 18.7739 38.571Z" fill="white"/>
<path d="M11.5413 37.7398H9.62938C9.46313 37.7398 9.29688 37.5735 9.29688 37.4073C9.29688 37.241 9.46313 37.0748 9.62938 37.0748H11.5413C11.7076 37.0748 11.8738 37.241 11.8738 37.4073C11.7907 37.5735 11.6244 37.7398 11.5413 37.7398Z" fill="white"/>
<path d="M8.54906 37.7398H8.3828C8.21655 37.7398 8.05029 37.5735 8.05029 37.4073C8.05029 37.241 8.21655 37.0748 8.3828 37.0748H8.54906C8.71531 37.0748 8.88157 37.241 8.88157 37.4073C8.88157 37.5735 8.71531 37.7398 8.54906 37.7398Z" fill="white"/>
<path d="M16.7784 49.7101H3.81053C3.39489 49.7101 3.14551 49.3776 3.14551 49.0451V42.4781C3.14551 42.0624 3.47802 41.813 3.81053 41.813H16.8615C17.2772 41.813 17.5265 42.1456 17.5265 42.4781V49.0451C17.4434 49.3776 17.194 49.7101 16.7784 49.7101Z" fill="#989FB0"/>
<path d="M9.79587 47.4657C9.62962 47.4657 9.46336 47.3826 9.38024 47.2995L8.13333 46.0525C7.88394 45.8032 7.88394 45.4707 8.13333 45.2213C8.38271 44.9719 8.71522 44.9719 8.9646 45.2213L9.71274 45.9694L11.5415 44.1406C11.7909 43.8912 12.1234 43.8912 12.3728 44.1406C12.6222 44.39 12.6222 44.7225 12.3728 44.9719L10.2115 47.1332C10.0453 47.3826 9.879 47.4657 9.79587 47.4657Z" fill="white"/>
<path opacity="0.8" d="M16.7784 59.5191H3.81053C3.39489 59.5191 3.14551 59.1866 3.14551 58.8541V52.2871C3.14551 51.8714 3.47802 51.622 3.81053 51.622H16.8615C17.2772 51.622 17.5265 51.9546 17.5265 52.2871V58.8541C17.4434 59.1866 17.194 59.5191 16.7784 59.5191Z" fill="#E5E9F1"/>
<path opacity="0.5" d="M16.7784 69.3282H3.81053C3.39489 69.3282 3.14551 68.9957 3.14551 68.6632V62.0961C3.14551 61.6805 3.47802 61.4311 3.81053 61.4311H16.8615C17.2772 61.4311 17.5265 61.7636 17.5265 62.0961V68.6632C17.4434 69.0788 17.194 69.3282 16.7784 69.3282Z" fill="#E5E9F1"/>
<path opacity="0.3" d="M17.4435 72.0714V73.4014H17.3604H3.14563H3.0625V72.0714C3.0625 71.6558 3.39501 71.4064 3.72752 71.4064H16.7785C17.1941 71.4064 17.4435 71.7389 17.4435 72.0714Z" fill="#E5E9F1"/>
<path d="M19.7711 15.0461C20.1867 15.0461 20.5192 14.7136 20.5192 14.2979C20.5192 13.8823 20.1867 13.5498 19.7711 13.5498C19.3555 13.5498 19.0229 13.8823 19.0229 14.2979C19.0229 14.7136 19.3555 15.0461 19.7711 15.0461Z" fill="#E3EAF2"/>
<path d="M22.1822 15.0461C22.5979 15.0461 22.9304 14.7136 22.9304 14.2979C22.9304 13.8823 22.5979 13.5498 22.1822 13.5498C21.7666 13.5498 21.4341 13.8823 21.4341 14.2979C21.4341 14.7136 21.7666 15.0461 22.1822 15.0461Z" fill="#E3EAF2"/>
<path d="M24.5929 15.0461C25.0085 15.0461 25.341 14.7136 25.341 14.2979C25.341 13.8823 25.0085 13.5498 24.5929 13.5498C24.1772 13.5498 23.8447 13.8823 23.8447 14.2979C23.8447 14.7136 24.1772 15.0461 24.5929 15.0461Z" fill="#E3EAF2"/>
<path d="M99.6677 61.4665C99.3352 62.8797 98.8364 64.376 98.2546 65.6229C96.6751 68.6986 94.1813 71.1093 91.1056 72.6887C87.9468 74.2682 84.206 74.9332 80.4653 74.1019C71.6538 72.2731 66.0011 63.6279 67.83 54.8164C69.6588 46.0049 78.2209 40.2691 87.0324 42.181C90.1912 42.846 92.9344 44.4254 95.262 46.5868C99.1689 50.5769 100.748 56.1464 99.6677 61.4665Z" fill="url(#paint1_linear_132_3053)"/>
<path d="M88.8616 56.7283H85.1208V52.9876C85.1208 52.2394 84.539 51.5744 83.7077 51.5744C82.9595 51.5744 82.2945 52.1563 82.2945 52.9876V56.7283H78.5538C77.8056 56.7283 77.1406 57.3102 77.1406 58.1415C77.1406 58.9727 77.7225 59.5546 78.5538 59.5546H82.2945V63.2954C82.2945 64.0435 82.8764 64.7085 83.7077 64.7085C84.4558 64.7085 85.1208 64.1266 85.1208 63.2954V59.5546H88.8616C89.6097 59.5546 90.2747 58.9727 90.2747 58.1415C90.3579 57.3102 89.6928 56.7283 88.8616 56.7283Z" fill="white"/>
<path d="M0.827148 74.9883L96.847 74.9883" stroke="#989FB0" stroke-width="1.21556" stroke-miterlimit="10" stroke-linecap="round" stroke-linejoin="round"/>
<path d="M7.05049 32.5936C8.42673 32.5936 9.54239 31.4779 9.54239 30.1017C9.54239 28.7255 8.42673 27.6098 7.05049 27.6098C5.67425 27.6098 4.55859 28.7255 4.55859 30.1017C4.55859 31.4779 5.67425 32.5936 7.05049 32.5936Z" fill="#EAEEF9"/>
<path d="M4.55823 24.5101C5.4981 24.5101 6.26001 23.7482 6.26001 22.8084C6.26001 21.8685 5.4981 21.1066 4.55823 21.1066C3.61836 21.1066 2.85645 21.8685 2.85645 22.8084C2.85645 23.7482 3.61836 24.5101 4.55823 24.5101Z" fill="#EAEEF9"/>
<path d="M75.6837 4.5673C76.6236 4.5673 77.3855 3.80538 77.3855 2.86551C77.3855 1.92564 76.6236 1.16373 75.6837 1.16373C74.7438 1.16373 73.9819 1.92564 73.9819 2.86551C73.9819 3.80538 74.7438 4.5673 75.6837 4.5673Z" fill="#EAEEF9"/>
<path d="M93.6868 38.862C95.4323 38.862 96.8473 37.447 96.8473 35.7015C96.8473 33.9561 95.4323 32.5411 93.6868 32.5411C91.9414 32.5411 90.5264 33.9561 90.5264 35.7015C90.5264 37.447 91.9414 38.862 93.6868 38.862Z" fill="#EAEEF9"/>
<defs>
<filter id="filter0_d_132_3053" x="1.24602" y="2.54153" width="97.9826" height="80.692" filterUnits="userSpaceOnUse" color-interpolation-filters="sRGB">
<feFlood flood-opacity="0" result="BackgroundImageFix"/>
<feColorMatrix in="SourceAlpha" type="matrix" values="0 0 0 0 0 0 0 0 0 0 0 0 0 0 0 0 0 0 127 0" result="hardAlpha"/>
<feOffset dy="6.68558"/>
<feGaussianBlur stdDeviation="6.68558"/>
<feColorMatrix type="matrix" values="0 0 0 0 0.397708 0 0 0 0 0.47749 0 0 0 0 0.575 0 0 0 0.27 0"/>
<feBlend mode="normal" in2="BackgroundImageFix" result="effect1_dropShadow_132_3053"/>
<feBlend mode="normal" in="SourceGraphic" in2="effect1_dropShadow_132_3053" result="shape"/>
</filter>
<linearGradient id="paint0_linear_132_3053" x1="50.0363" y1="74.5287" x2="50.0363" y2="62.6917" gradientUnits="userSpaceOnUse">
<stop stop-color="#E8ECF5"/>
<stop offset="0.9913" stop-color="#BDC4D7"/>
</linearGradient>
<linearGradient id="paint1_linear_132_3053" x1="67.4714" y1="58.141" x2="100.006" y2="58.141" gradientUnits="userSpaceOnUse">
<stop stop-color="#B0BACC"/>
<stop offset="1" stop-color="#969EAE"/>
</linearGradient>
</defs>
</svg>
